<svg xmlns="http://www.w3.org/2000/svg" xmlns:xlink="http://www.w3.org/1999/xlink" contentStyleType="text/css" data-diagram-type="DESCRIPTION" height="1495px" preserveAspectRatio="none" style="width:1528px;height:1495px;background:#FAFAFA;" version="1.1" viewBox="0 0 1528 1495" width="1528px" zoomAndPan="magnify"><?plantuml 1.2026.6?><defs/><g><rect fill="#FAFAFA" height="1495" style="stroke:none;stroke-width:1;" width="1528" x="0" y="0"/><g class="title" data-source-line="1"><text fill="#000000" font-family="Segoe UI" font-size="14" font-weight="700" lengthAdjust="spacing" textLength="382.9355" x="569.3736" y="25.1074">Jarvis - package responsibilities and dependency direction</text></g><!--cluster ContractsZone--><g class="cluster" data-qualified-name="ContractsZone" data-source-line="18" id="ent0001"><rect fill="#EAF2FF" height="312.5" rx="2.5" ry="2.5" style="stroke:#94A3B8;stroke-width:1;" width="686" x="68.67" y="46.6211"/><text fill="#000000" font-family="Segoe UI" font-size="14" font-weight="700" lengthAdjust="spacing" textLength="231.8135" x="295.7633" y="63.7285">REQUESTS, OPTIONS, AND EVENTS</text></g><!--cluster RuntimeZone--><g class="cluster" data-qualified-name="RuntimeZone" data-source-line="31" id="ent0011"><rect fill="#F8FAFC" height="951" rx="2.5" ry="2.5" style="stroke:#94A3B8;stroke-width:1;" width="632" x="794.67" y="191.6211"/><text fill="#000000" font-family="Segoe UI" font-size="14" font-weight="700" lengthAdjust="spacing" textLength="159.209" x="1031.0655" y="208.7285">APPLICATION RUNTIME</text></g><!--cluster BoundariesZone--><g class="cluster" data-qualified-name="BoundariesZone" data-source-line="55" id="ent0026"><rect fill="#FFF7E8" height="148" rx="2.5" ry="2.5" style="stroke:#94A3B8;stroke-width:1;" width="994" x="374.67" y="1182.6211"/><text fill="#000000" font-family="Segoe UI" font-size="14" font-weight="700" lengthAdjust="spacing" textLength="276.1377" x="733.6012" y="1199.7285">USER, DEVICES, AND EXTERNAL SERVICES</text></g><!--entity Config--><g class="entity" data-qualified-name="ContractsZone.Config" data-source-line="19" id="ent0002"><rect fill="#FFFFFF" height="75.8633" rx="2.5" ry="2.5" style="stroke:#475569;stroke-width:0.5;" width="126.2852" x="226.67" y="91.6211"/><text fill="#000000" font-family="Segoe UI" font-size="14" lengthAdjust="spacing" textLength="38.6094" x="236.67" y="116.7285">config</text><text fill="#000000" font-family="Segoe UI" font-size="14" lengthAdjust="spacing" textLength="106.2852" x="236.67" y="135.3496">Settings, options,</text><text fill="#000000" font-family="Segoe UI" font-size="14" lengthAdjust="spacing" textLength="101.124" x="236.67" y="153.9707">TOML validation</text></g><!--entity Lifecycle--><g class="entity" data-qualified-name="ContractsZone.Lifecycle" data-source-line="20" id="ent0003"><rect fill="#FFFFFF" height="75.8633" rx="2.5" ry="2.5" style="stroke:#475569;stroke-width:0.5;" width="170.1855" x="392.67" y="91.6211"/><text fill="#000000" font-family="Segoe UI" font-size="14" lengthAdjust="spacing" textLength="48.9043" x="402.67" y="116.7285">lifecycle</text><text fill="#000000" font-family="Segoe UI" font-size="14" lengthAdjust="spacing" textLength="150.1855" x="402.67" y="135.3496">Turn and model-request</text><text fill="#000000" font-family="Segoe UI" font-size="14" lengthAdjust="spacing" textLength="39.9561" x="402.67" y="153.9707">events</text></g><!--entity Bus--><g class="entity" data-qualified-name="ContractsZone.Bus" data-source-line="21" id="ent0004"><rect fill="#FFFFFF" height="75.8633" rx="2.5" ry="2.5" style="stroke:#475569;stroke-width:0.5;" width="103.1455" x="603.17" y="91.6211"/><text fill="#000000" font-family="Segoe UI" font-size="14" lengthAdjust="spacing" textLength="22.0938" x="613.17" y="116.7285">bus</text><text fill="#000000" font-family="Segoe UI" font-size="14" lengthAdjust="spacing" textLength="75.9678" x="613.17" y="135.3496">Typed async</text><text fill="#000000" font-family="Segoe UI" font-size="14" lengthAdjust="spacing" textLength="83.1455" x="613.17" y="153.9707">event routing</text></g><!--entity UiContract--><g class="entity" data-qualified-name="ContractsZone.UiContract" data-source-line="22" id="ent0005"><rect fill="#FFFFFF" height="75.8633" rx="2.5" ry="2.5" style="stroke:#475569;stroke-width:0.5;" width="94.1768" x="92.67" y="91.6211"/><text fill="#000000" font-family="Segoe UI" font-size="14" lengthAdjust="spacing" textLength="64.8867" x="102.67" y="116.7285">ui.contract</text><text fill="#000000" font-family="Segoe UI" font-size="14" lengthAdjust="spacing" textLength="74.1768" x="102.67" y="135.3496">UI state and</text><text fill="#000000" font-family="Segoe UI" font-size="14" lengthAdjust="spacing" textLength="71.4971" x="102.67" y="153.9707">event DTOs</text></g><!--entity SystemLog--><g class="entity" data-qualified-name="ContractsZone.SystemLog" data-source-line="23" id="ent0006"><rect fill="#FFFFFF" height="75.8633" rx="2.5" ry="2.5" style="stroke:#475569;stroke-width:0.5;" width="144.0449" x="92.67" y="259.1211"/><text fill="#000000" font-family="Segoe UI" font-size="14" lengthAdjust="spacing" textLength="68.4277" x="102.67" y="284.2285">system_log</text><text fill="#000000" font-family="Segoe UI" font-size="14" lengthAdjust="spacing" textLength="80.9785" x="102.67" y="302.8496">Atomic log +</text><text fill="#000000" font-family="Segoe UI" font-size="14" lengthAdjust="spacing" textLength="124.0449" x="102.67" y="321.4707">UI event publication</text></g><!--entity Inputs--><g class="entity" data-qualified-name="RuntimeZone.Inputs" data-source-line="32" id="ent0012"><rect fill="#FFFFFF" height="121.1055" rx="2.5" ry="2.5" style="stroke:#475569;stroke-width:0.5;" width="185.1699" x="843.17" y="236.6211"/><text fill="#000000" font-family="Segoe UI" font-size="14" lengthAdjust="spacing" textLength="111.4531" x="853.17" y="261.7285">inputs  &#171;package&#187;</text><line style="stroke:#475569;stroke-width:1;" x1="844.17" x2="1027.3399" y1="265.2422" y2="265.2422"/><text fill="#000000" font-family="Segoe UI" font-size="14" lengthAdjust="spacing" textLength="165.1699" x="853.17" y="284.3496">hotkeys: global commands</text><text fill="#000000" font-family="Segoe UI" font-size="14" lengthAdjust="spacing" textLength="126.1367" x="853.17" y="302.9707">capture: screenshots</text><text fill="#000000" font-family="Segoe UI" font-size="14" lengthAdjust="spacing" textLength="161.0273" x="853.17" y="321.5918">clipboard: text submission</text><text fill="#000000" font-family="Segoe UI" font-size="14" lengthAdjust="spacing" textLength="147.6289" x="853.17" y="340.2129">depends on: config, bus</text></g><!--entity Audio--><g class="entity" data-qualified-name="RuntimeZone.Audio" data-source-line="34" id="ent0013"><rect fill="#FFFFFF" height="121.1055" rx="2.5" ry="2.5" style="stroke:#475569;stroke-width:0.5;" width="256.8857" x="1068.17" y="236.6211"/><text fill="#000000" font-family="Segoe UI" font-size="14" lengthAdjust="spacing" textLength="108.1855" x="1078.17" y="261.7285">audio  &#171;package&#187;</text><line style="stroke:#475569;stroke-width:1;" x1="1069.17" x2="1324.0557" y1="265.2422" y2="265.2422"/><text fill="#000000" font-family="Segoe UI" font-size="14" lengthAdjust="spacing" textLength="158.457" x="1078.17" y="284.3496">input: microphone + VAD</text><text fill="#000000" font-family="Segoe UI" font-size="14" lengthAdjust="spacing" textLength="152.1064" x="1078.17" y="302.9707">tts: buffering + synthesis</text><text fill="#000000" font-family="Segoe UI" font-size="14" lengthAdjust="spacing" textLength="167.0225" x="1078.17" y="321.5918">sound_cues: local feedback</text><text fill="#000000" font-family="Segoe UI" font-size="14" lengthAdjust="spacing" textLength="236.8857" x="1078.17" y="340.2129">depends on: config, bus, dialog events</text></g><!--entity App--><g class="entity" data-qualified-name="RuntimeZone.App" data-source-line="36" id="ent0014"><rect fill="#FFFFFF" height="139.7266" rx="2.5" ry="2.5" style="stroke:#475569;stroke-width:0.5;" width="300.9912" x="1060.17" y="412.6211"/><text fill="#000000" font-family="Segoe UI" font-size="14" lengthAdjust="spacing" textLength="170.0645" x="1070.17" y="437.7285">app.py  &#171;composition root&#187;</text><line style="stroke:#475569;stroke-width:1;" x1="1061.17" x2="1360.1612" y1="441.2422" y2="441.2422"/><text fill="#000000" font-family="Segoe UI" font-size="14" lengthAdjust="spacing" textLength="114.1943" x="1070.17" y="460.3496">construct modules</text><text fill="#000000" font-family="Segoe UI" font-size="14" lengthAdjust="spacing" textLength="110.7217" x="1070.17" y="478.9707">wire subscriptions</text><text fill="#000000" font-family="Segoe UI" font-size="14" lengthAdjust="spacing" textLength="131.4824" x="1070.17" y="497.5918">orchestrate each turn</text><text fill="#000000" font-family="Segoe UI" font-size="14" lengthAdjust="spacing" textLength="165.6279" x="1070.17" y="516.2129">own startup and shutdown</text><text fill="#000000" font-family="Segoe UI" font-size="14" lengthAdjust="spacing" textLength="280.9912" x="1070.17" y="534.834">depends on: all runtime packages + contracts</text></g><!--entity Dialog--><g class="entity" data-qualified-name="RuntimeZone.Dialog" data-source-line="38" id="ent0015"><rect fill="#FFFFFF" height="121.1055" rx="2.5" ry="2.5" style="stroke:#475569;stroke-width:0.5;" width="206.3613" x="826.67" y="607.6211"/><text fill="#000000" font-family="Segoe UI" font-size="14" lengthAdjust="spacing" textLength="111.8975" x="836.67" y="632.7285">dialog  &#171;package&#187;</text><line style="stroke:#475569;stroke-width:1;" x1="827.67" x2="1032.0313" y1="636.2422" y2="636.2422"/><text fill="#000000" font-family="Segoe UI" font-size="14" lengthAdjust="spacing" textLength="168.2256" x="836.67" y="655.3496">backend: Ollama streaming</text><text fill="#000000" font-family="Segoe UI" font-size="14" lengthAdjust="spacing" textLength="185.4111" x="836.67" y="673.9707">tool_presentation: dialog loop</text><text fill="#000000" font-family="Segoe UI" font-size="14" lengthAdjust="spacing" textLength="186.3613" x="836.67" y="692.5918">thinking/time: request context</text><text fill="#000000" font-family="Segoe UI" font-size="14" lengthAdjust="spacing" textLength="184.9805" x="836.67" y="711.2129">depends on: config, bus, tools</text></g><!--entity Tools--><g class="entity" data-qualified-name="RuntimeZone.Tools" data-source-line="40" id="ent0016"><rect fill="#FFFFFF" height="139.7266" rx="2.5" ry="2.5" style="stroke:#475569;stroke-width:0.5;" width="239.3857" x="954.17" y="783.6211"/><text fill="#000000" font-family="Segoe UI" font-size="14" lengthAdjust="spacing" textLength="103.7832" x="964.17" y="808.7285">tools  &#171;package&#187;</text><line style="stroke:#475569;stroke-width:1;" x1="955.17" x2="1192.5557" y1="812.2422" y2="812.2422"/><text fill="#000000" font-family="Segoe UI" font-size="14" lengthAdjust="spacing" textLength="115.5" x="964.17" y="831.3496">host: MCP lifecycle</text><text fill="#000000" font-family="Segoe UI" font-size="14" lengthAdjust="spacing" textLength="137.4639" x="964.17" y="849.9707">registry: typed catalog</text><text fill="#000000" font-family="Segoe UI" font-size="14" lengthAdjust="spacing" textLength="144.0605" x="964.17" y="868.5918">dispatch: policy + audit</text><text fill="#000000" font-family="Segoe UI" font-size="14" lengthAdjust="spacing" textLength="138.4072" x="964.17" y="887.2129">client: stdio JSON-RPC</text><text fill="#000000" font-family="Segoe UI" font-size="14" lengthAdjust="spacing" textLength="219.3857" x="964.17" y="905.834">depends on: config, bus, ui.contract</text></g><!--entity Journal--><g class="entity" data-qualified-name="RuntimeZone.Journal" data-source-line="42" id="ent0017"><rect fill="#FFFFFF" height="121.1055" rx="2.5" ry="2.5" style="stroke:#475569;stroke-width:0.5;" width="246.3311" x="1114.67" y="607.6211"/><text fill="#000000" font-family="Segoe UI" font-size="14" lengthAdjust="spacing" textLength="116.1221" x="1124.67" y="632.7285">journal  &#171;package&#187;</text><line style="stroke:#475569;stroke-width:1;" x1="1115.67" x2="1360.0011" y1="636.2422" y2="636.2422"/><text fill="#000000" font-family="Segoe UI" font-size="14" lengthAdjust="spacing" textLength="226.3311" x="1124.67" y="655.3496">recorder: ordered background writes</text><text fill="#000000" font-family="Segoe UI" font-size="14" lengthAdjust="spacing" textLength="165.792" x="1124.67" y="673.9707">store: local JSONL + media</text><text fill="#000000" font-family="Segoe UI" font-size="14" lengthAdjust="spacing" textLength="137.915" x="1124.67" y="692.5918">search: session lookup</text><text fill="#000000" font-family="Segoe UI" font-size="14" lengthAdjust="spacing" textLength="102.1494" x="1124.67" y="711.2129">depends on: bus</text></g><!--entity Ui--><g class="entity" data-qualified-name="RuntimeZone.Ui" data-source-line="44" id="ent0018"><rect fill="#FFFFFF" height="139.7266" rx="2.5" ry="2.5" style="stroke:#475569;stroke-width:0.5;" width="295.1602" x="1107.17" y="978.6211"/><text fill="#000000" font-family="Segoe UI" font-size="14" lengthAdjust="spacing" textLength="84.6152" x="1117.17" y="1003.7285">ui  &#171;package&#187;</text><line style="stroke:#475569;stroke-width:1;" x1="1108.17" x2="1401.3302" y1="1007.2422" y2="1007.2422"/><text fill="#000000" font-family="Segoe UI" font-size="14" lengthAdjust="spacing" textLength="157.5479" x="1117.17" y="1026.3496">trackers: state projections</text><text fill="#000000" font-family="Segoe UI" font-size="14" lengthAdjust="spacing" textLength="136.2197" x="1117.17" y="1044.9707">transport: local bridge</text><text fill="#000000" font-family="Segoe UI" font-size="14" lengthAdjust="spacing" textLength="188.9521" x="1117.17" y="1063.5918">console: controls and windows</text><text fill="#000000" font-family="Segoe UI" font-size="14" lengthAdjust="spacing" textLength="120.6338" x="1117.17" y="1082.2129">HTML/CSS/JS views</text><text fill="#000000" font-family="Segoe UI" font-size="14" lengthAdjust="spacing" textLength="275.1602" x="1117.17" y="1100.834">depends on: config, bus, lifecycle, ui.contract</text></g><!--entity User--><g class="entity" data-qualified-name="BoundariesZone.User" data-source-line="56" id="ent0027"><ellipse cx="412.5435" cy="1236.1211" fill="#F1F1F1" rx="8" ry="8" style="stroke:#181818;stroke-width:0.5;"/><path d="M412.5435,1244.1211 L412.5435,1271.1211 M399.5435,1252.1211 L425.5435,1252.1211 M412.5435,1271.1211 L399.5435,1286.1211 M412.5435,1271.1211 L425.5435,1286.1211" fill="none" style="stroke:#181818;stroke-width:0.5;"/><text fill="#000000" font-family="Segoe UI" font-size="14" lengthAdjust="spacing" textLength="27.7471" x="398.67" y="1302.7285">User</text></g><!--entity InputDevices--><g class="entity" data-qualified-name="BoundariesZone.InputDevices" data-source-line="57" id="ent0028"><rect fill="#F8FAFC" height="57.2422" rx="2.5" ry="2.5" style="stroke:#94A3B8;stroke-width:0.5;" width="219.3359" x="467.17" y="1238.6211"/><text fill="#000000" font-family="Segoe UI" font-size="14" lengthAdjust="spacing" textLength="81.7715" x="477.17" y="1263.7285">Input devices</text><text fill="#000000" font-family="Segoe UI" font-size="14" lengthAdjust="spacing" textLength="199.3359" x="477.17" y="1282.3496">Microphone / screen / clipboard</text></g><!--entity Speakers--><g class="entity" data-qualified-name="BoundariesZone.Speakers" data-source-line="58" id="ent0029"><rect fill="#F8FAFC" height="38.6211" rx="2.5" ry="2.5" style="stroke:#94A3B8;stroke-width:0.5;" width="75.2002" x="726.17" y="1247.6211"/><text fill="#000000" font-family="Segoe UI" font-size="14" lengthAdjust="spacing" textLength="55.2002" x="736.17" y="1272.7285">Speakers</text></g><!--entity Ollama--><g class="entity" data-qualified-name="BoundariesZone.Ollama" data-source-line="59" id="ent0030"><path d="M850.3389,1243.5397 C852.3627,1237.8499 857.9871,1236.9336 861.7126,1241.6861 C864.3813,1235.509 870.1322,1235.3556 873.6703,1240.7908 C876.3706,1234.3441 881.7378,1234.7364 885.7989,1239.2904 C889.7583,1234.0216 894.4867,1233.1748 897.9744,1239.7743 C900.8897,1235.0094 903.8345,1234.4828 907.559,1238.9326 C911.7489,1232.6049 917.5935,1234.0396 920.1622,1240.527 C923.3452,1234.75 929.0042,1234.433 932.0345,1240.6778 C935.8508,1235.7341 940.4868,1236.5113 943.0985,1241.9602 C951.8156,1243.6805 953.1786,1248.1889 947.9886,1255.0891 C955.8264,1257.6017 957.421,1262.1465 951.7696,1268.4705 C957.1774,1274.588 954.8643,1278.603 947.8488,1280.7555 C952.0079,1286.1626 951.2336,1292.1548 943.6731,1293.8145 C941.4088,1299.9424 936.5404,1301.6511 931.6642,1296.6272 C928.6886,1303.0652 923.8735,1303.6356 919.4885,1298.055 C917.1069,1305.1965 913.5186,1306.1812 907.9793,1301.0056 C905.463,1305.8918 900.8739,1307.2624 897.5756,1301.7911 C893.438,1307.0403 886.7962,1307.1462 884.4165,1299.9347 C880.5059,1303.8111 875.6201,1303.6818 873.8207,1297.672 C870.3053,1302.029 864.8208,1301.6195 862.3103,1296.4569 C857.6788,1301.0405 851.8085,1299.1251 850.1109,1293.0871 C844.8513,1289.9518 844.7867,1285.7062 849.1852,1281.7801 C842.1222,1278.0622 840.5121,1273.7662 846.1127,1267.3516 C841.817,1262.4775 841.6054,1258.7631 847.8467,1255.4203 C842.5532,1251.1437 844.6334,1245.5089 850.3389,1243.5397" fill="#F1F1F1" style="stroke:#181818;stroke-width:0.5;"/><text fill="#000000" font-family="Segoe UI" font-size="14" lengthAdjust="spacing" textLength="79.249" x="856.17" y="1263.7285">Local Ollama</text><text fill="#000000" font-family="Segoe UI" font-size="14" lengthAdjust="spacing" textLength="55.9111" x="856.17" y="1282.3496">/api/chat</text></g><!--entity McpServers--><g class="entity" data-qualified-name="BoundariesZone.McpServers" data-source-line="60" id="ent0031"><polygon fill="#F1F1F1" points="990.67,1243.6211,1000.67,1233.6211,1164.6749,1233.6211,1164.6749,1290.8633,1154.6749,1300.8633,990.67,1300.8633,990.67,1243.6211" style="stroke:#181818;stroke-width:0.5;stroke-linejoin:miter;stroke-miterlimit:10;"/><line style="stroke:#181818;stroke-width:0.5;" x1="1154.6749" x2="1164.6749" y1="1243.6211" y2="1233.6211"/><line style="stroke:#181818;stroke-width:0.5;" x1="990.67" x2="1154.6749" y1="1243.6211" y2="1243.6211"/><line style="stroke:#181818;stroke-width:0.5;" x1="1154.6749" x2="1154.6749" y1="1243.6211" y2="1300.8633"/><text fill="#000000" font-family="Segoe UI" font-size="14" lengthAdjust="spacing" textLength="106.6748" x="1005.67" y="1268.7285">Explicitly enabled</text><text fill="#000000" font-family="Segoe UI" font-size="14" lengthAdjust="spacing" textLength="134.0049" x="1005.67" y="1287.3496">MCP server processes</text></g><!--entity WebView--><g class="entity" data-qualified-name="BoundariesZone.WebView" data-source-line="61" id="ent0032"><polygon fill="#F1F1F1" points="1204.67,1243.6211,1214.67,1233.6211,1321.0684,1233.6211,1321.0684,1290.8633,1311.0684,1300.8633,1204.67,1300.8633,1204.67,1243.6211" style="stroke:#181818;stroke-width:0.5;stroke-linejoin:miter;stroke-miterlimit:10;"/><line style="stroke:#181818;stroke-width:0.5;" x1="1311.0684" x2="1321.0684" y1="1243.6211" y2="1233.6211"/><line style="stroke:#181818;stroke-width:0.5;" x1="1204.67" x2="1311.0684" y1="1243.6211" y2="1243.6211"/><line style="stroke:#181818;stroke-width:0.5;" x1="1311.0684" x2="1311.0684" y1="1243.6211" y2="1300.8633"/><text fill="#000000" font-family="Segoe UI" font-size="14" lengthAdjust="spacing" textLength="65.7002" x="1219.67" y="1268.7285">WebView2</text><text fill="#000000" font-family="Segoe UI" font-size="14" lengthAdjust="spacing" textLength="76.3984" x="1219.67" y="1287.3496">local UI host</text></g><!--link Config to Lifecycle--><!--link Lifecycle to Bus--><!--link Bus to UiContract--><!--link UiContract to SystemLog--><!--reverse link UiContract to SystemLog--><g class="link" data-entity-1="ent0005" data-entity-2="ent0006" data-link-type="dependency" data-source-line="87" id="lnk55"><path d="M124,172.6311 C124,199.9411 124,231.6211 124,258.9711" fill="none" id="UiContract-backto-SystemLog" style="stroke:#475569;stroke-width:1;"/><polygon fill="#475569" points="124,167.6311,120,176.6311,124,172.6311,128,176.6311,124,167.6311" style="stroke:#475569;stroke-width:1;stroke-linejoin:miter;stroke-miterlimit:10;"/><text fill="#000000" font-family="Segoe UI" font-size="13" lengthAdjust="spacing" textLength="116.6953" x="7" y="209.3294">creates SystemEvent</text></g><!--link Inputs to Audio--><!--link Audio to App--><!--link App to Audio--><g class="link" data-entity-1="ent0014" data-entity-2="ent0013" data-link-type="dependency" data-source-line="75" id="lnk41"><path d="M1273.77,412.4911 C1273.77,394.4311 1273.77,380.1611 1273.77,362.6411" fill="none" id="App-to-Audio" style="stroke:#475569;stroke-width:1;"/><polygon fill="#475569" points="1273.77,357.6411,1269.77,366.6411,1273.77,362.6411,1277.77,366.6411,1273.77,357.6411" style="stroke:#475569;stroke-width:1;stroke-linejoin:miter;stroke-miterlimit:10;"/><text fill="#000000" font-family="Segoe UI" font-size="13" lengthAdjust="spacing" textLength="100.2676" x="1172.77" y="381.0894">constructs / wires</text></g><!--link App to Dialog--><!--link App to Dialog--><g class="link" data-entity-1="ent0014" data-entity-2="ent0015" data-link-type="dependency" data-source-line="76" id="lnk42"><path d="M1073.79,552.6711 C1073.79,605.4011 1073.79,668.6211 1073.79,668.6211 C1073.79,668.6211 1060.98,668.6211 1037.88,668.6211" fill="none" id="App-to-Dialog-1" style="stroke:#475569;stroke-width:1;"/><polygon fill="#475569" points="1032.88,668.6211,1041.88,672.6211,1037.88,668.6211,1041.88,664.6211,1032.88,668.6211" style="stroke:#475569;stroke-width:1;stroke-linejoin:miter;stroke-miterlimit:10;"/><text fill="#000000" font-family="Segoe UI" font-size="13" lengthAdjust="spacing" textLength="70.0718" x="1038.79" y="646.1294">orchestrates</text></g><!--link Dialog to Tools--><!--link Dialog to Tools--><g class="link" data-entity-1="ent0015" data-entity-2="ent0016" data-link-type="dependency" data-source-line="91" id="lnk57"><path d="M1006.5,728.8611 C1006.5,746.2911 1006.5,760.4511 1006.5,778.4011" fill="none" id="Dialog-to-Tools-1" style="stroke:#475569;stroke-width:1;"/><polygon fill="#475569" points="1006.5,783.4011,1010.5,774.4011,1006.5,778.4011,1002.5,774.4011,1006.5,783.4011" style="stroke:#475569;stroke-width:1;stroke-linejoin:miter;stroke-miterlimit:10;"/><text fill="#000000" font-family="Segoe UI" font-size="13" lengthAdjust="spacing" textLength="118.5298" x="887.5" y="752.1594">registry + dispatcher</text></g><!--link App to Journal--><!--link App to Journal--><g class="link" data-entity-1="ent0014" data-entity-2="ent0017" data-link-type="dependency" data-source-line="78" id="lnk44"><path d="M1278.67,552.7511 C1278.67,570.8111 1278.67,585.0811 1278.67,602.6011" fill="none" id="App-to-Journal-1" style="stroke:#475569;stroke-width:1;"/><polygon fill="#475569" points="1278.67,607.6011,1282.67,598.6011,1278.67,602.6011,1274.67,598.6011,1278.67,607.6011" style="stroke:#475569;stroke-width:1;stroke-linejoin:miter;stroke-miterlimit:10;"/><text fill="#000000" font-family="Segoe UI" font-size="13" lengthAdjust="spacing" textLength="103.9429" x="1174.67" y="576.2094">records / searches</text></g><!--link Journal to Ui--><!--link Tools to Ui--><!--link User to InputDevices--><!--link InputDevices to Speakers--><!--link Speakers to Ollama--><!--link Ollama to McpServers--><!--link McpServers to WebView--><!--link ContractsZone to RuntimeZone--><!--link RuntimeZone to BoundariesZone--><!--link App to Inputs--><g class="link" data-entity-1="ent0014" data-entity-2="ent0012" data-link-type="dependency" data-source-line="74" id="lnk40"><path d="M1062.83,412.3811 C1062.83,371.3711 1062.83,327.6211 1062.83,327.6211 C1062.83,327.6211 1052.98,327.6211 1033.42,327.6211" fill="none" id="App-to-Inputs" style="stroke:#475569;stroke-width:1;"/><polygon fill="#475569" points="1028.42,327.6211,1037.42,331.6211,1033.42,327.6211,1037.42,323.6211,1028.42,327.6211" style="stroke:#475569;stroke-width:1;stroke-linejoin:miter;stroke-miterlimit:10;"/><text fill="#000000" font-family="Segoe UI" font-size="13" lengthAdjust="spacing" textLength="100.2676" x="961.83" y="367.8194">constructs / wires</text></g><!--link App to Tools--><g class="link" data-entity-1="ent0014" data-entity-2="ent0016" data-link-type="dependency" data-source-line="77" id="lnk43"><path d="M1101.04,552.8411 C1101.04,618.9111 1101.04,712.3011 1101.04,778.3711" fill="none" id="App-to-Tools" style="stroke:#475569;stroke-width:1;"/><polygon fill="#475569" points="1101.04,783.3711,1105.04,774.3711,1101.04,778.3711,1097.04,774.3711,1101.04,783.3711" style="stroke:#475569;stroke-width:1;stroke-linejoin:miter;stroke-miterlimit:10;"/><text fill="#000000" font-family="Segoe UI" font-size="13" lengthAdjust="spacing" textLength="57.9097" x="1043.04" y="683.1394">composes</text></g><!--link App to Ui--><g class="link" data-entity-1="ent0014" data-entity-2="ent0018" data-link-type="dependency" data-source-line="79" id="lnk45"><path d="M1361.38,482.6211 C1373.77,482.6211 1381.67,482.6211 1381.67,482.6211 C1381.67,482.6211 1381.67,821.7811 1381.67,973.3711" fill="none" id="App-to-Ui" style="stroke:#475569;stroke-width:1;"/><polygon fill="#475569" points="1381.67,978.3711,1385.67,969.3711,1381.67,973.3711,1377.67,969.3711,1381.67,978.3711" style="stroke:#475569;stroke-width:1;stroke-linejoin:miter;stroke-miterlimit:10;"/><text fill="#000000" font-family="Segoe UI" font-size="13" lengthAdjust="spacing" textLength="130.0127" x="1382.67" y="716.3794">exposes state / control</text></g><!--reverse link Config to App--><g class="link" data-entity-1="ent0002" data-entity-2="ent0014" data-link-type="dependency" data-source-line="83" id="lnk47"><path d="M294.67,172.8411 C294.67,268.6911 294.67,506.6211 294.67,506.6211 C294.67,506.6211 799.9,506.6211 1059.92,506.6211" fill="none" id="Config-backto-App" style="stroke:#475569;stroke-width:1;"/><polygon fill="#475569" points="294.67,167.8411,290.67,176.8411,294.67,172.8411,298.67,176.8411,294.67,167.8411" style="stroke:#475569;stroke-width:1;stroke-linejoin:miter;stroke-miterlimit:10;"/><text fill="#000000" font-family="Segoe UI" font-size="13" lengthAdjust="spacing" textLength="134.7417" x="372.91" y="502.6494">loads validated settings</text></g><!--reverse link Lifecycle to App--><g class="link" data-entity-1="ent0003" data-entity-2="ent0014" data-link-type="dependency" data-source-line="84" id="lnk49"><path d="M514.92,172.8011 C514.92,259.6611 514.92,459.6211 514.92,459.6211 C514.92,459.6211 855.55,459.6211 1060.13,459.6211" fill="none" id="Lifecycle-backto-App" style="stroke:#475569;stroke-width:1;"/><polygon fill="#475569" points="514.92,167.8011,510.92,176.8011,514.92,172.8011,518.92,176.8011,514.92,167.8011" style="stroke:#475569;stroke-width:1;stroke-linejoin:miter;stroke-miterlimit:10;"/><text fill="#000000" font-family="Segoe UI" font-size="13" lengthAdjust="spacing" textLength="160.7417" x="480.61" y="455.6494">publishes turn/request state</text></g><!--reverse link Bus to App--><g class="link" data-entity-1="ent0004" data-entity-2="ent0014" data-link-type="dependency" data-source-line="85" id="lnk51"><path d="M711.28,149.6211 C821.62,149.6211 1065.5,149.6211 1065.5,149.6211 C1065.5,149.6211 1065.5,314.7111 1065.5,412.4111" fill="none" id="Bus-backto-App" style="stroke:#475569;stroke-width:1;stroke-dasharray:7,7;"/><polygon fill="#475569" points="706.28,149.6211,715.28,153.6211,711.28,149.6211,715.28,145.6211,706.28,149.6211" style="stroke:#475569;stroke-width:1;stroke-linejoin:miter;stroke-miterlimit:10;"/><text fill="#000000" font-family="Segoe UI" font-size="13" lengthAdjust="spacing" textLength="110.6523" x="906.28" y="145.6494">owns event routing</text></g><!--reverse link UiContract to Ui--><g class="link" data-entity-1="ent0005" data-entity-2="ent0018" data-link-type="dependency" data-source-line="86" id="lnk53"><path d="M87.43,129.6211 C77.35,129.6211 74.67,129.6211 74.67,129.6211 C74.67,129.6211 74.67,1048.6211 74.67,1048.6211 C74.67,1048.6211 790.39,1048.6211 1107.01,1048.6211" fill="none" id="UiContract-backto-Ui" style="stroke:#475569;stroke-width:1;"/><polygon fill="#475569" points="92.43,129.6211,83.43,125.6211,87.43,129.6211,83.43,133.6211,92.43,129.6211" style="stroke:#475569;stroke-width:1;stroke-linejoin:miter;stroke-miterlimit:10;"/><text fill="#000000" font-family="Segoe UI" font-size="13" lengthAdjust="spacing" textLength="77.9683" x="44.46" y="1044.6494">renders DTOs</text></g><!--link Audio to Dialog--><g class="link" data-entity-1="ent0013" data-entity-2="ent0015" data-link-type="dependency" data-source-line="90" id="lnk56"><path d="M1067.94,297.6211 C1054.95,297.6211 1046.42,297.6211 1046.42,297.6211 C1046.42,297.6211 1046.42,638.6211 1046.42,638.6211 C1046.42,638.6211 1046.22,638.6211 1038.02,638.6211" fill="none" id="Audio-to-Dialog" style="stroke:#475569;stroke-width:1;"/><polygon fill="#475569" points="1033.02,638.6211,1042.02,642.6211,1038.02,638.6211,1042.02,634.6211,1033.02,638.6211" style="stroke:#475569;stroke-width:1;stroke-linejoin:miter;stroke-miterlimit:10;"/><text fill="#000000" font-family="Segoe UI" font-size="13" lengthAdjust="spacing" textLength="121.126" x="924.42" y="460.0794">response event types</text></g><!--reverse link Inputs to User--><g class="link" data-entity-1="ent0012" data-entity-2="ent0027" data-link-type="dependency" data-source-line="94" id="lnk59"><path d="M838.07,342.6211 C687.85,342.6211 412.67,342.6211 412.67,342.6211 C412.67,342.6211 412.67,1050.4411 412.67,1227.4011" fill="none" id="Inputs-backto-User" style="stroke:#475569;stroke-width:1;"/><polygon fill="#475569" points="843.07,342.6211,834.07,338.6211,838.07,342.6211,834.07,346.6211,843.07,342.6211" style="stroke:#475569;stroke-width:1;stroke-linejoin:miter;stroke-miterlimit:10;"/><text fill="#000000" font-family="Segoe UI" font-size="13" lengthAdjust="spacing" textLength="119.793" x="292.67" y="565.8394">hotkeys / commands</text></g><!--reverse link Inputs to InputDevices--><g class="link" data-entity-1="ent0012" data-entity-2="ent0028" data-link-type="dependency" data-source-line="95" id="lnk61"><path d="M837.97,350.6211 C748.28,350.6211 630.83,350.6211 630.83,350.6211 C630.83,350.6211 630.83,1083.1911 630.83,1238.4311" fill="none" id="Inputs-backto-InputDevices" style="stroke:#475569;stroke-width:1;"/><polygon fill="#475569" points="842.97,350.6211,833.97,346.6211,837.97,350.6211,833.97,354.6211,842.97,350.6211" style="stroke:#475569;stroke-width:1;stroke-linejoin:miter;stroke-miterlimit:10;"/><text fill="#000000" font-family="Segoe UI" font-size="13" lengthAdjust="spacing" textLength="107.0024" x="522.83" y="684.4894">screen + clipboard</text></g><!--reverse link Audio to InputDevices--><g class="link" data-entity-1="ent0013" data-entity-2="ent0028" data-link-type="dependency" data-source-line="96" id="lnk63"><path d="M1119.57,362.7811 C1119.57,373.6611 1119.57,376.6211 1119.57,376.6211 C1119.57,376.6211 658.5,376.6211 658.5,376.6211 C658.5,376.6211 658.5,1086.0811 658.5,1238.5011" fill="none" id="Audio-backto-InputDevices" style="stroke:#475569;stroke-width:1;"/><polygon fill="#475569" points="1119.57,357.7811,1115.57,366.7811,1119.57,362.7811,1123.57,366.7811,1119.57,357.7811" style="stroke:#475569;stroke-width:1;stroke-linejoin:miter;stroke-miterlimit:10;"/><text fill="#000000" font-family="Segoe UI" font-size="13" lengthAdjust="spacing" textLength="119.2534" x="538.5" y="563.6394">microphone samples</text></g><!--link Audio to Speakers--><g class="link" data-entity-1="ent0013" data-entity-2="ent0029" data-link-type="dependency" data-source-line="97" id="lnk64"><path d="M1170.97,357.7611 C1170.97,377.5911 1170.97,394.6211 1170.97,394.6211 C1170.97,394.6211 774.42,394.6211 774.42,394.6211 C774.42,394.6211 774.42,1112.3911 774.42,1242.2611" fill="none" id="Audio-to-Speakers" style="stroke:#475569;stroke-width:1;"/><polygon fill="#475569" points="774.42,1247.2611,778.42,1238.2611,774.42,1242.2611,770.42,1238.2611,774.42,1247.2611" style="stroke:#475569;stroke-width:1;stroke-linejoin:miter;stroke-miterlimit:10;"/><text fill="#000000" font-family="Segoe UI" font-size="13" lengthAdjust="spacing" textLength="81.8086" x="692.42" y="600.2594">speech + cues</text></g><!--link Dialog to Ollama--><g class="link" data-entity-1="ent0015" data-entity-2="ent0030" data-link-type="dependency" data-source-line="98" id="lnk65"><path d="M895.67,728.8511 C895.67,853.7711 895.67,1130.9511 895.67,1228.3311" fill="none" id="Dialog-to-Ollama" style="stroke:#475569;stroke-width:1;"/><polygon fill="#475569" points="895.67,1233.3311,899.67,1224.3311,895.67,1228.3311,891.67,1224.3311,895.67,1233.3311" style="stroke:#475569;stroke-width:1;stroke-linejoin:miter;stroke-miterlimit:10;"/><text fill="#000000" font-family="Segoe UI" font-size="13" lengthAdjust="spacing" textLength="120.999" x="774.67" y="977.1194">local streaming HTTP</text></g><!--link Tools to McpServers--><g class="link" data-entity-1="ent0016" data-entity-2="ent0031" data-link-type="dependency" data-source-line="99" id="lnk66"><path d="M1048.92,923.7611 C1048.92,1013.7411 1048.92,1161.2011 1048.92,1228.4911" fill="none" id="Tools-to-McpServers" style="stroke:#475569;stroke-width:1;"/><polygon fill="#475569" points="1048.92,1233.4911,1052.92,1224.4911,1048.92,1228.4911,1044.92,1224.4911,1048.92,1233.4911" style="stroke:#475569;stroke-width:1;stroke-linejoin:miter;stroke-miterlimit:10;"/><text fill="#000000" font-family="Segoe UI" font-size="13" lengthAdjust="spacing" textLength="91.2793" x="948.5084" y="1057.6594">stdio JSON-RPC</text><text fill="#000000" font-family="Segoe UI" font-size="13" lengthAdjust="spacing" textLength="108.4561" x="939.92" y="1074.9504">only when enabled</text></g><!--link Ui to WebView--><g class="link" data-entity-1="ent0018" data-entity-2="ent0032" data-link-type="dependency" data-source-line="100" id="lnk67"><path d="M1262.67,1118.6611 C1262.67,1157.1011 1262.67,1198.0211 1262.67,1228.5011" fill="none" id="Ui-to-WebView" style="stroke:#475569;stroke-width:1;"/><polygon fill="#475569" points="1262.67,1233.5011,1266.67,1224.5011,1262.67,1228.5011,1258.67,1224.5011,1262.67,1233.5011" style="stroke:#475569;stroke-width:1;stroke-linejoin:miter;stroke-miterlimit:10;"/><text fill="#000000" font-family="Segoe UI" font-size="13" lengthAdjust="spacing" textLength="156.0063" x="1105.67" y="1172.1094">loopback transport + views</text></g><g class="legend" data-source-line="102"><rect fill="none" height="125.7266" rx="7.5" ry="7.5" style="stroke:#000000;stroke-width:1;" width="485.5693" x="518.0567" y="1350.6211"/><text fill="#000000" font-family="Segoe UI" font-size="14" font-weight="700" lengthAdjust="spacing" textLength="54.6807" x="526.919" y="1372.7285">Relation</text><text fill="#000000" font-family="Segoe UI" font-size="14" font-weight="700" lengthAdjust="spacing" textLength="58.0918" x="589.3243" y="1372.7285">Meaning</text><text fill="#000000" font-family="Segoe UI" font-size="14" lengthAdjust="spacing" textLength="20.7744" x="526.8916" y="1391.3496">--&gt;</text><text fill="#000000" font-family="Segoe UI" font-size="14" lengthAdjust="spacing" textLength="289.3037" x="589.2969" y="1391.3496">Direct call, construction, import, or external I/O</text><text fill="#000000" font-family="Segoe UI" font-size="14" lengthAdjust="spacing" textLength="15.6475" x="526.8916" y="1409.9707">..&gt;</text><text fill="#000000" font-family="Segoe UI" font-size="14" lengthAdjust="spacing" textLength="261.167" x="589.2969" y="1409.9707">Typed event publication/subscription path</text><line style="stroke:#000000;stroke-width:1;" x1="523.0567" x2="882.4356" y1="1357.6211" y2="1357.6211"/><line style="stroke:#000000;stroke-width:1;" x1="523.0567" x2="882.4356" y1="1376.2422" y2="1376.2422"/><line style="stroke:#000000;stroke-width:1;" x1="523.0567" x2="882.4356" y1="1394.8633" y2="1394.8633"/><line style="stroke:#000000;stroke-width:1;" x1="523.0567" x2="882.4356" y1="1413.4844" y2="1413.4844"/><line style="stroke:#000000;stroke-width:1;" x1="523.0567" x2="523.0567" y1="1357.6211" y2="1413.4844"/><line style="stroke:#000000;stroke-width:1;" x1="585.462" x2="585.462" y1="1357.6211" y2="1413.4844"/><line style="stroke:#000000;stroke-width:1;" x1="882.4356" x2="882.4356" y1="1357.6211" y2="1413.4844"/><text fill="#000000" font-family="Segoe UI" font-size="14" lengthAdjust="spacing" textLength="475.5693" x="523.0567" y="1430.5918">Repeated config/bus/contract dependencies are listed inside package blocks.</text><text fill="#000000" font-family="Segoe UI" font-size="14" lengthAdjust="spacing" textLength="358.4014" x="523.0567" y="1449.2129">Hidden links control ranks only and are not dependencies.</text><text fill="#000000" font-family="Segoe UI" font-size="14" lengthAdjust="spacing" textLength="434.4717" x="523.0567" y="1467.834">Use graphify-out/graph.html for exhaustive symbol-level relationships.</text></g><?plantuml-src XLZlRziu4lskluB8VhWFZUt3NdlRDVOAk8c3fiYlY-tUuTQBWfPeYnkQr99KKkDw__kz8IbPijrk2oGIEHmD7z-y6SPBhmJxoEspT6p0Afu_yOrWLhZAQ2TNKaalXMDS5wmGbT25qFcE5TAAt4kZiyoRYdd3LiPxi-rCk2UfAsxvbgtWT6DDhOiBeunbFrnDw7_78ZTRV4veF_CxHL_FFTSR9JecAR9l6xYI5-P5wWrRS-MwCuLOyrhvAwFz7TyADXCR8zZYkcEYf1P-Lmbch2zDPqARGZXHiTT_xGnQhfzeyCsRpk34MlEIDlZwfpTl_lxpgGs-DxOGzi_DZY0B_xenD13qFFxyUlAtzszFcXrvV8j3kCYoreATFKx_kPZEvhDpTlymlxw_myFaxf9DFqtlvhCpnXsx08QMvzxz1s6o7wQJgn-lhjX_CxOFdPtbHg_bPgbdmdkSXpjdfY9AkFEbdj_Vth1dhcJ1QQXn2lk-3oNN8j_bIc19RNNWtnPdeGPM_54BvvTQFCFI1GytZNNVoQfsM8vZBM2qqtbQmm031HQMlgzTVr4jXtdQvL8lhfdpt0lwVhFwSduVlxgG3Hnz3sxdlDX-LWOOJ90KCcTuPg-2k-YZgbTAvdi8Pc79ZTbaS1NnO8DVIraWtNwpSbFwmRlUBjldOxEu8_mydkf5l7yvDjp7yxyUGoOF3pVN5nCY1tjStCslRwSX_iTQUxaLaHMHMOUi02DhxnZxvPUKok_UBVLWC5ZgqlWdiNDZjb5cnHKjsW9ld5tEArzRCMOkjq9e1qiQLR9Q6MwBCVFYYsUkNcsbSy1ogQD6EMRqc4KUdZFG80Hv7IB8-c7nkf3cL5GXtZ73wLbJbRInL-pJv7AflKUegtgz5fRKvXK3jNmfd4HeZXBiSmw2Zd7cEJQp5g8W0VncQEVGJ4xywF1vGa4T1bfLmsf7aOP19uayeBBnRSZmwhojSQ18bLe91FG2FIQ00A2CIRZKnkO85oSFNWkUbmmO0phpeedirjTLI3TNrXwAUW0gLuhPUDgD9ZjWqAHCYh-g3g9FUpo1Cu43xsDshnJVSeHW1Ty2MI1jZFfSeHR1HSYLSOELCgR2V2arb6upecZ6B2b3Y0My-0xYv3X6UXdy7GGRfayprO4IjnSFhADFLcmaWjw1ZK5gaDOyv7uXNSLzNevPPP3jEy14RFE1mVWGQEs9V1zdztU3nuUBxmJS4QKGzfmYF8ZwTuDZ1EDEn8qC3bLYpC8l1BcloUp5IazKSTvGgaNQKamt27WhW3Zc1BUq4IT2dX7-JtNL3xX9iuynZknGLay5HZjw4jQDaynMrlmU-mSN9ZNQ4EkRe5PM5XiHUMwK64VMqLaHNr7xGLUi-p2_lHbTp6QZZpFsB0KDVHFOzXoFCLv8sa8KZME5Z2dAukyJqyW0HZ-FfnBbM7euDeY7Ux2QCX5p3RYiUJebyfWDFevMOwglvulPzF6SNKu_NLzCcsh_x_dqyMvomp0LXcEP9AfmYrOmQVpLrK_Jjq7ZWHVwYRE54pRYXWSCTxuIC4GRzYnp8jhjNb97ITdnqAhwNgiluug-irabE54critqGbnJfYxOsKrWIjIIfHxnIexoaiSJZQEmfQwEdKs_L4XBDC0x9ZHVAO4IJxcD-9-59IxYus1yM7kRLxCmxjhr_nAhJw3NZqiTwOdgJW8HpDCSCOZmE3wbWmrsNq-Ku_qscyTZetPtIKYF37fRsByS6pR1WolzXk-GJvsodtLRW4ExFdkox2_eSVOrhBrNI2gRgSxXEe9kJwu4bIcS42eiAn7VOCtr0FrRg7p3BEH80wTZ8RjZ3NJW55K_rzh4LFskIKf9qicsHkvdOrADewovpaIJYrI3I6d9SPJCZj52Obvy2IkJt8qQ1ID8Fj3kdDpeq09fdNIGBbUq-RR2CiLtmWxP8s23aw8fmmE53aB1KHTFnb7_5UeJx2GkT4Kg-Sr53sDUy8APDIiiHmSWDQERWr929NJh2i6ddfIKc6DxgOE7KvUQ_8xjlZSTnqRN0ORGP8oQ4Xss7vVyMd3C5x-5fTIr0lmNRBlNgcS0BphlTAs4DlO91bDBdhKzwobBg0mTPMfif-GxqD0QvmOj6DjAYMtJRFHnV1ALfzCBYW5aekntAPFkp295Jis0ongDxx2dwHTGNPiE0OA9OAPVl0WqMhNfGa3jw4megz8LcswVmoogIjXeo_tKI0TQnHOww-jAtpn9xwkzz9uoRxAcqmWxJa2v1eIKvAqomNCb14W6ptK7WsINvAafwcs_npxCvmzPAbp9jgDInzsIqT25bn9RIF8TM99M9WqBdp4LjJkixISGMEWBiao93Ouu8GjL_FeFf9MAnu_dMy4rHVQLfi8XViLvKp52bwVK-LvAiE2S-0FlkEvQC2MTvVNeFYqV3cbvl8uUtG97tHuT6UZBiAhDyTYqZD2pZ1eX-BCyRrYz0ivFRWXl7u8eqnyxdboZFF6F6InWILqK-T6cxtmOgnZRM5wLShqZ_Hs5bs7fjxZZX0sNl7PUFeCUk-tAg2X7O7k4qvMoWYFuZ9Xd_mS0?></g></svg>